<svg width="1190" height="842" viewBox="0 0 1190 842" fill="none" xmlns="http://www.w3.org/2000/svg">
<g clip-path="url(#clip0_5_21)">
<rect width="1190" height="842" fill="white"/>
<rect width="1190" height="842" fill="url(#paint0_linear_5_21)"/>
<path d="M891.998 659.538C1011.9 678.115 1089.66 659.538 1190 640.798V842.039H0V690.234C321.079 748.538 370.245 622.038 515.734 573.038C710.891 507.31 772.095 640.962 891.998 659.538Z" fill="url(#paint1_linear_5_21)"/>
<path d="M831.645 690.348C935.538 666.348 1008.31 591.848 1190 640.848V842.348H0V603.848C145.048 545.348 298.127 580.348 370.401 606.848C608.574 694.179 727.752 714.348 831.645 690.348Z" fill="url(#paint2_linear_5_21)"/>
<path d="M358.355 690.348C254.462 666.348 181.687 591.848 0 640.848V842.348H1190V603.848C1044.95 545.348 891.873 580.348 819.599 606.848C581.426 694.179 462.248 714.348 358.355 690.348Z" fill="url(#paint3_linear_5_21)"/>
<path d="M831.645 761.348C935.538 737.348 1008.31 662.848 1190 711.848V842H0V674.848C145.048 616.348 298.127 651.348 370.401 677.848C608.574 765.179 727.752 785.348 831.645 761.348Z" fill="url(#paint4_linear_5_21)"/>
</g>
<defs>
<linearGradient id="paint0_linear_5_21" x1="0" y1="0" x2="1190" y2="842" gradientUnits="userSpaceOnUse">
<stop offset="0.202254" stop-color="#297E13"/>
<stop offset="1" stop-color="#6DCE21"/>
</linearGradient>
<linearGradient id="paint1_linear_5_21" x1="595" y1="529.312" x2="595" y2="842.039" gradientUnits="userSpaceOnUse">
<stop stop-color="#C3C712"/>
<stop offset="0.572917" stop-color="#703600"/>
</linearGradient>
<linearGradient id="paint2_linear_5_21" x1="595" y1="529.218" x2="595" y2="842.348" gradientUnits="userSpaceOnUse">
<stop offset="0.114583" stop-color="#1EC07C"/>
<stop offset="0.755208" stop-color="#005A2F"/>
</linearGradient>
<linearGradient id="paint3_linear_5_21" x1="595" y1="529.218" x2="595" y2="842.348" gradientUnits="userSpaceOnUse">
<stop offset="0.354882" stop-color="#02816A"/>
<stop offset="1" stop-color="#000C4A"/>
</linearGradient>
<linearGradient id="paint4_linear_5_21" x1="-4.80342e-05" y1="692.5" x2="1190.34" y2="853.695" gradientUnits="userSpaceOnUse">
<stop stop-color="#2BB048"/>
<stop offset="1" stop-color="#0A648A"/>
</linearGradient>
<clipPath id="clip0_5_21">
<rect width="1190" height="842" fill="white"/>
</clipPath>
</defs>
</svg>
