<svg width="1190" height="842" viewBox="0 0 1190 842" fill="none" xmlns="http://www.w3.org/2000/svg">
<rect width="1190" height="842" fill="#1E1E1E"/>
<g id="A4 - 2" clip-path="url(#clip0_0_1)">
<rect width="1190" height="842" fill="white"/>
<rect id="Rectangle 1" width="1190" height="842" fill="url(#paint0_linear_0_1)"/>
<path id="Vector 3" d="M891.998 659.538C1011.9 678.115 1089.66 659.538 1190 640.798V842.039H0V690.234C321.079 748.538 370.245 622.038 515.734 573.038C710.891 507.31 772.095 640.962 891.998 659.538Z" fill="url(#paint1_linear_0_1)"/>
<path id="Vector 2" d="M831.645 690.348C935.538 666.348 1008.31 591.848 1190 640.848V842.348H0V603.848C145.048 545.348 298.127 580.348 370.401 606.848C608.574 694.179 727.752 714.348 831.645 690.348Z" fill="url(#paint2_linear_0_1)"/>
<path id="Vector 1" d="M358.355 690.348C254.462 666.348 181.687 591.848 0 640.848V842.348H1190V603.848C1044.95 545.348 891.873 580.348 819.599 606.848C581.426 694.179 462.248 714.348 358.355 690.348Z" fill="url(#paint3_linear_0_1)"/>
<path id="Vector 4" d="M831.645 761.348C935.538 737.348 1008.31 662.848 1190 711.848V842H0V674.848C145.048 616.348 298.127 651.348 370.401 677.848C608.574 765.179 727.752 785.348 831.645 761.348Z" fill="url(#paint4_linear_0_1)"/>
</g>
<defs>
<linearGradient id="paint0_linear_0_1" x1="0" y1="0" x2="1190" y2="842" gradientUnits="userSpaceOnUse">
<stop offset="0.0714406" stop-color="#4C0F82"/>
<stop offset="0.91251" stop-color="#AF944E"/>
</linearGradient>
<linearGradient id="paint1_linear_0_1" x1="595" y1="529.312" x2="595" y2="842.039" gradientUnits="userSpaceOnUse">
<stop stop-color="#BA12C7"/>
<stop offset="1" stop-color="#480C88"/>
</linearGradient>
<linearGradient id="paint2_linear_0_1" x1="595" y1="529.218" x2="595" y2="842.348" gradientUnits="userSpaceOnUse">
<stop stop-color="#772AAE"/>
<stop offset="1" stop-color="#480C88"/>
</linearGradient>
<linearGradient id="paint3_linear_0_1" x1="595" y1="529.218" x2="595" y2="842.348" gradientUnits="userSpaceOnUse">
<stop stop-color="#7435DE"/>
<stop offset="1" stop-color="#480C88"/>
</linearGradient>
<linearGradient id="paint4_linear_0_1" x1="-4.80342e-05" y1="692.5" x2="1190.34" y2="853.695" gradientUnits="userSpaceOnUse">
<stop stop-color="#C134DD"/>
<stop offset="1" stop-color="#490E80"/>
</linearGradient>
<clipPath id="clip0_0_1">
<rect width="1190" height="842" fill="white"/>
</clipPath>
</defs>
</svg>
