<?xml version="1.0" encoding="UTF-8"?>
<svg version="1.1" viewBox="0 0 1052.4 744.09" xmlns="http://www.w3.org/2000/svg">
 <g transform="translate(0 -308.27)">
  <rect transform="translate(0 308.27)" x="135.36" y="184.47" width="787.92" height="490.93" ry="76.772" fill="#bcd35f" fill-opacity=".70558" stroke="#806600" stroke-width="9"/>
  <g transform="matrix(.95869 .28446 -.28446 .95869 103.27 -349.67)" fill="#8a0">
   <path transform="translate(0 308.27)" d="m313.15 392.56c29.85 17.473 46.911 93.577 66.67 50.508-27.648-41.753-14.711-83.506-12.122-125.26 26.965 0.50511 49.04 30.356 70.711 62.629-16.822-36.464 13.906-79.72 32.325-121.22 20.006 17.706 33.779 41.646 32.325 80.812 43.953-86.38 115.86-95.887 179.81-127.28-14.789 69.373-60.038 128.59-123.24 181.83 28.928 4.5634 55.087-4.7138 88.893 24.244-7.0266 31.196-48.9 42.479-92.934 52.528 19.557 3.7876 23.021-2.0807 66.67 16.162-7.0998 34.817-68.482 40.313-107.08 38.386 31.647 22.227 66.152 41.597 92.934 68.69-143.08 66.411-190.79 27.91-284.86 40.406 24.238-84.573-63.973-147.37-10.102-242.44z" stroke="#bcd35f" stroke-width="4"/>
   <path transform="translate(0 308.27)" d="m684.88 216.79c-162.56 130.97-252.87 275.07-359.61 416.18" stroke="#abc837" stroke-width="5"/>
   <path transform="translate(0 308.27)" d="m452.55 459.23c33.096-14.681 99.881-55.775 179.81-36.365" stroke="#abc837" stroke-width="5"/>
   <path d="m462.65 755.38c10.256-49.142 18.838-99.295 10.583-159.6" stroke="#abc837" stroke-width="5"/>
   <path transform="translate(0 308.27)" d="m424.26 497.62c58.124-7.1033 116.78-14.861 185.87-8.0812" stroke="#abc837" stroke-width="5"/>
   <path d="m424.26 803.86c-3.1642-48.809-6.0965-97.545-44.447-157.58" stroke="#abc837" stroke-width="5"/>
   <path transform="translate(0 308.27)" d="m361.63 584.49c64.969-7.3395 147.19-21.058 210.11 2.0203" stroke="#abc837" stroke-width="5"/>
   <path d="m363.65 890.74c-14.092-50.373-21.689-104.29-50.508-171.73" stroke="#abc837" stroke-width="5"/>
   <path transform="translate(0 308.27)" d="m533.36 362.26c24.435-26.31 24.232-56.984 36.366-88.893" stroke="#abc837" stroke-width="5"/>
   <path d="m543.46 654.36c37.22-29.957 72.321-29.983 98.995-38.386" stroke="#abc837" stroke-width="5"/>
  </g>
  <g transform="matrix(.48074 -.43373 .4774 .43676 -434.6 462.04)">
   <path transform="translate(0 308.27)" d="m313.15 392.56c29.85 17.473 46.911 93.577 66.67 50.508-27.648-41.753-14.711-83.506-12.122-125.26 26.965 0.50511 49.04 30.356 70.711 62.629-16.822-36.464 13.906-79.72 32.325-121.22 20.006 17.706 33.779 41.646 32.325 80.812 43.953-86.38 115.86-95.887 179.81-127.28-14.789 69.373-60.038 128.59-123.24 181.83 28.928 4.5634 55.087-4.7138 88.893 24.244-7.0266 31.196-48.9 42.479-92.934 52.528 19.557 3.7876 23.021-2.0807 66.67 16.162-7.0998 34.817-68.482 40.313-107.08 38.386 31.647 22.227 66.152 41.597 92.934 68.69-143.08 66.411-190.79 27.91-284.86 40.406 24.238-84.573-63.973-147.37-10.102-242.44z" fill="#668000" stroke="#bcd35f" stroke-width="6.1941"/>
   <path transform="translate(0 308.27)" d="m684.88 216.79c-162.56 130.97-252.87 275.07-359.61 416.18" fill="none" stroke="#abc837" stroke-width="7.7426"/>
   <path transform="translate(0 308.27)" d="m452.55 459.23c33.096-14.681 99.881-55.775 179.81-36.365" fill="none" stroke="#abc837" stroke-width="7.7426"/>
   <path d="m462.65 755.38c10.256-49.142 18.838-99.295 10.583-159.6" fill="none" stroke="#abc837" stroke-width="7.7426"/>
   <path transform="translate(0 308.27)" d="m424.26 497.62c58.124-7.1033 116.78-14.861 185.87-8.0812" fill="none" stroke="#abc837" stroke-width="7.7426"/>
   <path d="m424.26 803.86c-3.1642-48.809-6.0965-97.545-44.447-157.58" fill="none" stroke="#abc837" stroke-width="7.7426"/>
   <path transform="translate(0 308.27)" d="m361.63 584.49c64.969-7.3395 147.19-21.058 210.11 2.0203" fill="none" stroke="#abc837" stroke-width="7.7426"/>
   <path d="m363.65 890.74c-14.092-50.373-21.689-104.29-50.508-171.73" fill="none" stroke="#abc837" stroke-width="7.7426"/>
   <path transform="translate(0 308.27)" d="m533.36 362.26c24.435-26.31 24.232-56.984 36.366-88.893" fill="none" stroke="#abc837" stroke-width="7.7426"/>
   <path d="m543.46 654.36c37.22-29.957 72.321-29.983 98.995-38.386" fill="none" stroke="#abc837" stroke-width="7.7426"/>
  </g>
  <g transform="matrix(-.44109 -.474 .42935 -.48408 60.464 1368.7)" fill="#8a0">
   <path transform="translate(0 308.27)" d="m313.15 392.56c29.85 17.473 46.911 93.577 66.67 50.508-27.648-41.753-14.711-83.506-12.122-125.26 26.965 0.50511 49.04 30.356 70.711 62.629-16.822-36.464 13.906-79.72 32.325-121.22 20.006 17.706 33.779 41.646 32.325 80.812 43.953-86.38 115.86-95.887 179.81-127.28-14.789 69.373-60.038 128.59-123.24 181.83 28.928 4.5634 55.087-4.7138 88.893 24.244-7.0266 31.196-48.9 42.479-92.934 52.528 19.557 3.7876 23.021-2.0807 66.67 16.162-7.0998 34.817-68.482 40.313-107.08 38.386 31.647 22.227 66.152 41.597 92.934 68.69-143.08 66.411-190.79 27.91-284.86 40.406 24.238-84.573-63.973-147.37-10.102-242.44z" stroke="#bcd35f" stroke-width="6.1941"/>
   <path transform="translate(0 308.27)" d="m684.88 216.79c-162.56 130.97-252.87 275.07-359.61 416.18" stroke="#abc837" stroke-width="7.7426"/>
   <path transform="translate(0 308.27)" d="m452.55 459.23c33.096-14.681 99.881-55.775 179.81-36.365" stroke="#abc837" stroke-width="7.7426"/>
   <path d="m462.65 755.38c10.256-49.142 18.838-99.295 10.583-159.6" stroke="#abc837" stroke-width="7.7426"/>
   <path transform="translate(0 308.27)" d="m424.26 497.62c58.124-7.1033 116.78-14.861 185.87-8.0812" stroke="#abc837" stroke-width="7.7426"/>
   <path d="m424.26 803.86c-3.1642-48.809-6.0965-97.545-44.447-157.58" stroke="#abc837" stroke-width="7.7426"/>
   <path transform="translate(0 308.27)" d="m361.63 584.49c64.969-7.3395 147.19-21.058 210.11 2.0203" stroke="#abc837" stroke-width="7.7426"/>
   <path d="m363.65 890.74c-14.092-50.373-21.689-104.29-50.508-171.73" stroke="#abc837" stroke-width="7.7426"/>
   <path transform="translate(0 308.27)" d="m533.36 362.26c24.435-26.31 24.232-56.984 36.366-88.893" stroke="#abc837" stroke-width="7.7426"/>
   <path d="m543.46 654.36c37.22-29.957 72.321-29.983 98.995-38.386" stroke="#abc837" stroke-width="7.7426"/>
  </g>
  <g transform="matrix(.56764 .31147 -.25557 .59444 171.2 299.98)">
   <path transform="translate(0 308.27)" d="m313.15 392.56c29.85 17.473 46.911 93.577 66.67 50.508-27.648-41.753-14.711-83.506-12.122-125.26 26.965 0.50511 49.04 30.356 70.711 62.629-16.822-36.464 13.906-79.72 32.325-121.22 20.006 17.706 33.779 41.646 32.325 80.812 43.953-86.38 115.86-95.887 179.81-127.28-14.789 69.373-60.038 128.59-123.24 181.83 28.928 4.5634 55.087-4.7138 88.893 24.244-7.0266 31.196-48.9 42.479-92.934 52.528 19.557 3.7876 23.021-2.0807 66.67 16.162-7.0998 34.817-68.482 40.313-107.08 38.386 31.647 22.227 66.152 41.597 92.934 68.69-143.08 66.411-190.79 27.91-284.86 40.406 24.238-84.573-63.973-147.37-10.102-242.44z" fill="#668000" stroke="#bcd35f" stroke-width="6.1941"/>
   <path transform="translate(0 308.27)" d="m684.88 216.79c-162.56 130.97-252.87 275.07-359.61 416.18" fill="none" stroke="#abc837" stroke-width="7.7426"/>
   <path transform="translate(0 308.27)" d="m452.55 459.23c33.096-14.681 99.881-55.775 179.81-36.365" fill="none" stroke="#abc837" stroke-width="7.7426"/>
   <path d="m462.65 755.38c10.256-49.142 18.838-99.295 10.583-159.6" fill="none" stroke="#abc837" stroke-width="7.7426"/>
   <path transform="translate(0 308.27)" d="m424.26 497.62c58.124-7.1033 116.78-14.861 185.87-8.0812" fill="none" stroke="#abc837" stroke-width="7.7426"/>
   <path d="m424.26 803.86c-3.1642-48.809-6.0965-97.545-44.447-157.58" fill="none" stroke="#abc837" stroke-width="7.7426"/>
   <path transform="translate(0 308.27)" d="m361.63 584.49c64.969-7.3395 147.19-21.058 210.11 2.0203" fill="none" stroke="#abc837" stroke-width="7.7426"/>
   <path d="m363.65 890.74c-14.092-50.373-21.689-104.29-50.508-171.73" fill="none" stroke="#abc837" stroke-width="7.7426"/>
   <path transform="translate(0 308.27)" d="m533.36 362.26c24.435-26.31 24.232-56.984 36.366-88.893" fill="none" stroke="#abc837" stroke-width="7.7426"/>
   <path d="m543.46 654.36c37.22-29.957 72.321-29.983 98.995-38.386" fill="none" stroke="#abc837" stroke-width="7.7426"/>
  </g>
 </g>
</svg>
